<svg version="1.1" xmlns="http://www.w3.org/2000/svg" viewBox="176.62 207.5 397.85 333.13">
 <g fill-rule="evenodd">
  <path d="m558.28 299.5c-15.938-4.8359-19.312-3.707-28.836 10.34-4.7734 7.0312-9.1602 14.324-13.773 21.473-3.6797 5.707-8.5781 8.9453-15.684 9.7656-5.6602 0.66016-11.133 3.1445-16.598 5.0625-1.0234 0.35938-1.9102 1.7461-2.4102 2.8594-10.777 24.059-29.215 38.852-55.199 45.289 1.3398 1.4766 2.3477 2.7578 3.5234 3.8516 5.9727 5.5781 9.4766 12.023 8.5391 20.59-0.44922 4.0977-0.4375 8.4141 0.35547 12.43 0.6875 3.4648 2.1641 7.1523 4.3516 9.8789 5.1016 6.375 7.0664 23.945 2.8398 30.926-2.1797 3.5977-5.8281 3.6289-8.0586 0.007812-0.67578-1.0898-1.0664-2.3477-1.875-4.1914-0.92188 1.5742-1.2852 3.0352-2.1992 3.5703-1.6328 0.95313-3.7461 2.0742-5.3711 1.7383-1.0977-0.23047-2.2109-2.7656-2.4375-4.3867-0.5625-4.0508-0.82422-12.203-2.9219-12.828-2.3398-1.2969-6.1562 3.3945-4.7266 9.1211 0.85547 3.4336-0.98828 4.2383-6.5703 3.3008 1 3.6289 1.7383 7.0938 2.9023 10.406 3.0039 8.5273 2.3906 16.547-2.0977 24.531-3.793 6.7344-1.7422 10.211 5.7227 13.41 5.1211 2.1914 10.145 5.0391 14.445 8.5391 2.3477 1.9023 3.5078 5.6328 4.4688 8.7695 0.87109 2.8594-0.69141 3.6172-3.8789 5.4453-6.4023 3.6758-20.289-2.0156-26.875-4.2305-2.0156-0.67578-4.5117-0.55469-6.6523-0.11719-4.8555 0.97266-9.2812 0.53516-12.152-3.793-2.8633-4.3203-3.9922-8.9258-0.16406-13.645 0.78125-0.96094 0.84375-3.3008 0.22656-4.4766-3.9219-7.4531-2.5156-14.586 0.45312-21.875 0.89062-2.1836 0.73828-4.7812 0.96094-6.4141-5.7969-0.66016-10.496-1.2422-15.207-1.6797-0.96484-0.09375-2.25-0.019531-2.9258 0.53516-4.9062 4.0078-10.434 4.8906-16.508 3.4531 1.1758 4.6797 2.3672 9.1484 3.375 13.652 0.28516 1.2578 0.24219 2.6914-0.046875 3.9609-1.2422 5.5234-3.2578 10.211-0.38672 16.711 3.1836 7.1992-4.4688 14.266-12.496 12.645-4.6602-0.94141-8.4219-0.14844-12.469 1.8711-3.3516 1.6758-7.0195 3.5977-10.602 3.7188-4.7656 0.15625-10.527 0.55078-14.301-2.3594-0.75391-0.58203-1.6289-3.6367-1.3398-5.3945 1.3633-8.3867 8.4453-11.547 14.781-15.227 4.1328-2.3945 8.457-4.4648 13.129-6.9102-5.0586-10.785-10.785-20.621-5.3242-31.773-5.9336-4.4219-6.0508-6.375-3.7734-13.789 3.9102-12.754 7.3125-25.672 10.926-38.52-0.53125-0.24219-1.0703-0.49219-1.6016-0.73047-6.4375 3.7656-12.918 7.4648-19.281 11.355-0.96094 0.59375-1.6133 1.9805-2.0117 3.1367-0.42188 1.2227-0.125 2.6992-0.56641 3.9102-2.5234 6.8086-3.5508 13.965 6.582 13.527 3.5039-0.15234 4.1953 7.7656 2.4219 10.207-1.3672 1.875-8.9648 3.4492-10.855 1.1992-3.3242-3.9492-7.2461-5.7539-12.02-6.6602-4.5859-0.88281-5.5-3.4531-2.9453-7.3281 2.4023-3.6484 4.7773-7.3008 7.9102-12.086-4.7188 1.5078-7.8203 3.4414-10.742 3.1914-3.1914-0.26953-6.2227-2.5156-9.2969-3.9688-1.0078-0.47266-2.082-0.98828-2.8398-1.7656-3.3633-3.457-2.207-10.82 2.6016-17.176 3.8438-5.0859 7.875-6.3086 12.707-3.8555 4.6641 2.3789 14.535 0.60938 17.289-3.6875 4.2461-6.6289 7.9688-13.605 11.242-19.27-10.473-5.7969-20.512-10.602-29.73-16.664-9.1406-6.0039-16.371-14.539-20.359-24.656-3.4141-8.6562-10.473-12.086-17.586-12.531-12.926-0.80078-19.508-8.1758-25.352-18.047-4.2305-7.1445-8.8164-14.156-13.984-20.637-6.3242-7.9414-10.941-8.6758-20.359-4.8672-9.5625 3.8594-13.809 3.0547-18.969-3.6133-1.3594-2.9922-1.457-5.2617 0-9.0977 4.7695-12.734 12.57-23.523 21.211-33.883 18.555-22.254 42.477-29.891 70.496-26.145 4.8672 0.65234 8.9492 0.57813 13.52-1.5547 2.8945-1.3555 6.8672-0.42578 10.355-0.48438 1.2109-0.019531 2.8125 0.60156 3.582 0.039062 10.281-7.5312 21.059-11.867 34.324-13.359 31.281-3.8359 62.457-3.3477 88.203-0.14844 15.246 2.0742 21.605 6.6719 31.375 10.93 3.4414 1.4961 5.9336 3.3828 10.215 1.9922 2.793-0.90625 6.4805 1.0039 9.7812 1.5586 2.9961 0.50391 6.125 1.625 9.0117 1.207 27.621-3.9766 51.754 2.1094 70.887 23.578 9.9648 11.18 18.684 23.121 23.703 37.414 1.1562 11.879-7.8516 15.211-16.059 12.727zm-149.55 89.77c38.742-0.003906 68.508-26.875 71.688-65.414 1.0273-12.422 0.80078-24.984 0.46094-37.469-1.0703-38.52-28.312-68.32-65.828-70.266-25.875-1.3438-51.918-1.1875-77.82-0.066406-32.578 1.4219-59.469 25.004-64.516 57.027-2.4844 15.746-1.918 32.105-1.5 48.152 0.86719 33.355 25.148 61.867 58.113 66.609 15.18 2.1836 68.418 1.4336 79.402 1.4258zm-79.719 81.48c11.371-4.3086 18.777-1.7383 24.176 7.8125 2.4688 4.3672 9.4492 4.1445 12.898 0.039062 3.0117-3.582 5.8203-3.5703 9.3867-1.6016 3.6406 2 7.0078 2.4336 10.215-1.0664 6.8633-7.4727 14.91-13.227 24.035-15.52-3.207-21.742-6.332-42.969-9.5312-64.699-17.191 0-35.148-0.066406-53.102 0.14844-1.1289 0.015625-3.0742 2.0742-3.2188 3.3477-2.6797 23.664-5 47.391-14.859 71.539zm-65.945-173.17c0.31641-0.20703 0.64062-0.42188 0.95703-0.63281 1.1289-10.109 2.3203-20.211 3.3086-30.328 0.14844-1.5312-0.11328-3.7266-1.0938-4.6367-7.5508-7.0312-14.711-14.719-23.188-20.449-9.2969-6.293-19.504-4.4531-27.809 2.8242-12.023 10.543-22.285 22.707-28.828 37.484-1.4922 3.3672-3.9844 8.9141-1.7148 11.348 1.875 3.0938 7.7422-0.27344 11.156-1.5859 7.5781-2.9062 14.723-2.7734 20.758 2.6055 4.5938 4.0977 8.5547 9.0508 12.156 14.078 4.6211 6.4414 8.2695 13.59 13.023 19.918 2.0703 2.75 5.6016 4.9727 8.918 6.0898 5.2266 1.7656 10.844 2.3945 16.086 3.4609-0.54297-4.7109-1.1133-10.129-1.8516-15.516-0.12891-0.96094-0.71484-2.2266-1.4883-2.6797-9.6641-5.7734-13.758-15-16.785-25.289-0.94531-3.2109-3.9961-6.2617-6.8398-8.3555-4.0195-2.9414 1.4648-7.6797 6.1094 0.19531 5.5586 9.418 14.523 31.422 19.832 26.492 0.31641-3.1016-1.3125-5.1797-2.9727-6.375-6.2969-4.5312-7.2852-10.391-6.3047-17.508 0.35547-2.6016-0.82813-5.5547-1.8008-8.168-1.2773-3.4375 4.375-4.7773 4.9336 0.94531 0.53516 5.4219 0.64453 15.621 3.4375 16.082zm222.03 40.449c4.1406-1.0859 8.3047-3.0391 12.504-3.082 6.8828-0.074219 10.789-3.7305 14.066-8.918 2.0234-3.1953 3.8945-6.4961 6.0625-9.5898 4.6602-6.6406 8.9492-13.652 14.348-19.641 6.5547-7.2656 14.793-9.0547 24.258-4.875 3.1406 1.3867 7.9219 4.3555 11.031 0.16016 1.5977-4.2109-0.42188-6.4375-1.832-9.6367-6.5938-14.965-16.855-27.336-29.031-38.047-6.0703-5.3477-13.387-7.8203-21.613-5.4805-13.316 3.7891-22.023 13.465-30.152 23.832-0.42188 0.53516-0.65234 1.4414-0.56641 2.1211 1.2695 10.555 2.6055 21.102 3.9258 31.66 2.7617 4.4414 3.6719-10.211 4.3086-15.617 0.71875-6.0508 7-3.4766 4.9062-0.82812-2.4023 3.0312-2.875 5.6406-1.9453 9.3398 1.5234 6.0859-0.11719 11.457-4.9141 15.926-1.9141 1.7812-2.168 3.1406-3.6133 5.4219-1.457 2.8125 0.17188 4.2578 1.4062 2.7383 8.7344-2.4258 10.316-23.344 19.195-30.246 18.746-9.0781-1.2852 2.4336-4.3125 16.941-1.4766 7.8047-6.6445 14.297-13.738 18.785-1.1953 0.75391-2.2227 2.4844-2.4531 3.9102-0.82422 5.0039-1.2617 10.074-1.8398 15.125zm-80.457 130.91c-2.5859 1.6914-4.3984 3.0078-6.332 4.1172-4.7773 2.7461-6.4141 6.0938-3.7305 11.559 1.0078 2.0547 0.51563 5.4844-0.49219 7.7617-2.8008 6.3281-4.4883 12.375-0.65234 18.914 1.9688 3.3477 1.7812 6.668-0.71094 10.043-0.98828 1.3398-1.4492 4.1641-0.6875 5.4141 0.80078 1.3125 3.5469 2.4062 5.125 2.0781 6.3594-1.3125 11.891 0.25 17.375 3.3008 2.4023 1.332 5.2344 1.875 7.582 2.6797 3.1016 0.5625 10.488 0.20312 6.4062-4.6562-2.4297-2.4375-8.2773-5.418-11.906-7.3008-13.98-7.25-16.969-9.6367-10.16-23.242 2.1367-4.2617 2.9297-9.75 2.625-14.559-0.32812-5.1328-2.6992-10.133-4.4414-16.109zm-84.523 64.941c8.832-2.875 17.09-8.6484 27.445-6.25 3.0312 0.69141 3.9102-3.7734 2.5195-7.2422-1.2109-3.0273-2.5-7.375-1.2227-9.793 3.6953-6.9844 2.1602-13.031-0.83984-19.426-0.79688-1.6992-0.61719-3.8398-1.25-5.6406-1.1602-3.3086-1.9023-7.1211-4.0977-9.5977-2.4766-2.8047-6.8516-0.84375-8.3008 2.8516-2.7188 6.918-2.7227 13.559 1.1602 20.129 1.4297 2.4062 2.7461 5.0859 3.2305 7.7969 0.38281 2.1914 0.26953 5.5117-1.0859 6.7812-3.3516 3.1523-7.4297 5.5977-11.414 8-3.75 2.2695-12.914 3.9023-15.082 7.5547-2.457 6.0078 4.7422 5.8086 8.9375 4.8359zm88.152-137.9c0.80469 4.2383-2.6367 8.9727 3.1016 11.664 7.8555 3.6797 10.887 10.527 12.102 18.562 1.0938 7.2969 6.0195 14.816-1.3984 20.711-4.9219 5.8906 3.9609 2.0938 6.5273 12.062 3.2578 5.625 5.7227-1.2852 12.379-1.7305 2.2227-3.2578-1.6719-10.48-3.4805-11.906-4.0547-3.1719-5.0703-7.3281-5.3672-11.934-0.34766-5.457-0.75-10.934-0.75781-16.391-0.023438-11.32-10.938-21.789-23.105-21.039zm-168.12-163.14c16.867 10.062 22.23 15.133 29.5 23.055 4.7344-9.1406 12.039-19.004 20.324-27.293-2.0938 0.76562-5.1211 0.77734-6.3555 1.918-3.9258 3.6367-8.0352 2.7617-12.625 1.7422-9.7734-2.1641-21.961-3.8633-30.844 0.57812zm221.7-3.6523c8.582 9.1797 14.801 19.02 18.941 27.676 7.9922-9.3242 19.684-18.352 30.191-23.824-7.3984-3.2578-20.004-1.5547-29.316-0.79688-5.1211 0.41797-9.832 1.9492-14.227-2.0742-1.082-0.99609-4.2617-1.7188-5.5898-0.98047zm-147.42 199.02c19.16-7.7891 25.02-16.5 22.656-32.219-4.7031-2.1562-6.7266-0.23047-8.8281 4.2422-3.418 7.2695-8.1406 13.918-12.062 20.98-1.0039 1.8086-1.0742 4.1289-1.7656 6.9961zm93.992-14.492c2.0039 11.664 3.7383 21.766 5.6797 33.066 5.7461-7.6016 6.0898-7.6953 4.3633-14.031-1.7461-6.4102-0.93359-14.219-10.043-19.035zm-109.13 21.516c0.21875-5.8906-4.3945-12.117-7.6055-10.754-3.0703 1.3008-7.3594 3.4648-7.1211 8.8516 0.13281 3.4961 5.2188 4.8633 8.1484 5.3555 2.1797 0.35156 4.8945-2.4922 6.5781-3.4531z"/>
  <path d="m323.04 338.11c-13.715-0.03125-24.66-10.82-24.688-24.352-0.027344-13.707 11.277-24.859 25.027-24.703 13.633 0.15625 24.289 11.062 24.195 24.77-0.082031 13.816-10.695 24.312-24.535 24.285z"/>
  <path d="m426.93 338.11c-13.766-0.085937-24.242-10.723-24.215-24.59 0.027344-13.688 10.801-24.461 24.477-24.461 13.875-0.003906 24.762 11.078 24.566 24.996-0.20312 13.699-10.969 24.141-24.828 24.055z"/>
  <path d="m296.12 286.54c14-9.5156 28.551-15.559 45.5-7.875 5.9492 2.6914 10.82 1.3008 14.32-5.0859 3.0742-5.625 4.707-12.043 6.8164-17.68 2.0742 7.8008 0.97266 15.773-3.8867 23.098-4 6.0195-10.918 9.3945-17.215 6.332-14.898-7.2539-29.109-3.4727-43.547 0.69531-0.65625 0.1875-1.3242 0.34375-1.9883 0.51562z"/>
  <path d="m380.46 255.61c1.8789 5.6875 3.1055 11.223 5.5078 16.195 3.8164 7.9141 9.125 9.457 17.191 6.1367 15.492-6.375 29.055-1.0039 42.012 7.8359-2.6836-0.67188-5.3672-1.3906-8.0703-2-2.9453-0.66016-5.918-1.2188-8.8828-1.8008-8.168-1.6133-16.004-1.2109-23.793 2.3906-8.8711 4.1055-16.832 1.0273-21.594-7.543-3.2617-5.8594-4.0234-12.402-2.3711-21.215z"/>
  <path d="m349.91 337.51c4.4414 4.4219 8.6055 7.6445 11.531 11.75 2.9297 4.1328 4.625 9.1562 7.0742 14.219 8.6953-5.8164 11.234-16.531 21.305-20.387-4.125 7.0859-7.3438 13.801-11.73 19.633-2.1992 2.9219-6.7539 6.125-9.8203 5.7539-3.0703-0.37109-6.4492-4.5977-8.2227-7.918-3.6602-6.8594-6.3398-14.246-10.137-23.051z"/>
  <path d="m363.22 298.48c5.2422 11.301 6.7344 22.859 2.6758 34.797-0.76172 0.058594-1.5312 0.11328-2.293 0.17578-0.95312-11.59-1.8984-23.184-2.8516-34.77 0.82812-0.066406 1.6445-0.13672 2.4688-0.20312z"/>
 </g>
</svg>